<?xml version="1.0" encoding="UTF-8"?>
<svg id="Layer_2" data-name="Layer 2" xmlns="http://www.w3.org/2000/svg" viewBox="0 0 384.49 207.27">
  <defs>
    <style>
      .cls-1 {
        fill: #fff;
      }

      .cls-2 {
        fill: #ff194b;
      }
    </style>
  </defs>
  <g id="Layer_1-2" data-name="Layer 1">
    <g>
      <g>
        <path class="cls-1" d="M80.68,137.84c-1.02-19.88-13.98-30.67-31-30.67-22.12,0-38.85,16.59-38.85,37.86,0,18.29,13.75,31.9,33.6,31.9,9.75,0,19.12-2.72,28.09-8.15.75-.45,1.11-1.36.89-2.21l-3.36-13.1c-.33-1.29-1.81-1.9-2.96-1.21-8.88,5.26-16.14,6.95-21.1,6.95s-8.93-1.84-11.63-4.82l44.93-14.56c.85-.28,1.43-1.09,1.38-1.98ZM31.11,139.64c1.7-8.37,8.65-14.6,17.01-14.6,4.68,0,8.79,1.84,11.06,5.39l-28.07,9.22Z"/>
        <path class="cls-1" d="M115.87,111.61c.24-1.24-.71-2.38-1.96-2.38h-19.99c-.94,0-1.76.66-1.95,1.58l-3.79,17.56-8.56,44.13c-.24,1.23.71,2.38,1.96,2.38h20.32c.96,0,1.78-.68,1.96-1.62l8.74-44.89,3.27-16.76Z"/>
        <path class="cls-1" d="M184.66,137.94c0-4.01-.76-7.68-2.14-10.95-1.54-3.66-1.2-7.84.81-11.26l2.66-4.52c.79-1.34-.19-3.03-1.74-3.01l-30.36.25c-22.54.14-38.57,15.31-38.57,34.88,0,17.01,13.47,29.49,31.9,29.49,2.84,0,5.67-.28,8.22-.85.71,1.28.99,2.69.99,4.25,0,6.81-6.38,11.77-15.17,11.77-4.57,0-8.79-1.22-12.62-3.76-.52-.34-1.16-.45-1.75-.26l-17.68,5.73c-1.33.43-1.83,2.07-.95,3.15,7.14,8.7,17.18,14.42,31.86,14.42,20.98,0,37.15-14.04,37.15-31.33,0-4.68-1.42-9.22-3.69-12.9,6.81-6.38,11.06-15.17,11.06-25.1ZM155.87,151.83h-.28l-.14.28c-1.99.99-4.25,1.56-6.52,1.56-6.94,0-11.97-5.32-11.76-12.48.22-7.53,6.62-13.66,14.15-13.46,6.88.19,11.65,5.23,11.65,12.05,0,5.1-2.98,9.64-7.09,12.05Z"/>
        <path class="cls-1" d="M94.63,100.14c.16.96,1,1.66,1.97,1.66h21.53c.72,0,1.39-.39,1.74-1.02l34.75-61.65c.75-1.33-.21-2.98-1.74-2.98h-21.97c-.77,0-1.47.44-1.81,1.14l-17.89,37.57-3.11-36.87c-.09-1.04-.95-1.83-1.99-1.83h-20.04c-1.24,0-2.18,1.11-1.97,2.34l10.52,61.65Z"/>
        <path class="cls-1" d="M179.84,103.93c4.92,0,9.73-.7,14.46-2.08.71-.21,1.25-.81,1.39-1.54l3.01-15.43c.31-1.59-1.3-2.86-2.78-2.2-5.91,2.61-10.84,3.54-14.51,3.54-4.96,0-8.93-1.84-11.63-4.82l44.93-14.56c.85-.28,1.43-1.09,1.38-1.98-1.02-19.88-13.98-30.67-31-30.67-22.12,0-38.85,16.59-38.85,37.86,0,18.29,13.75,31.9,33.6,31.9ZM183.53,52.03c4.68,0,8.79,1.84,11.06,5.39l-28.07,9.22c1.7-8.37,8.65-14.6,17.01-14.6Z"/>
        <path class="cls-1" d="M382.49,109.15h-21.51c-.76,0-1.45.43-1.79,1.11l-17.6,35.33-4.18-34.68c-.12-1-.97-1.76-1.99-1.76h-37.21l3.38-17.13c.3-1.5-1.13-2.76-2.58-2.29l-21.62,7.01c-.69.23-1.21.81-1.35,1.53l-2.08,10.88h-6c-.96,0-1.78.68-1.96,1.62l-2.92,15.14c-.24,1.23.71,2.38,1.96,2.38h5.23l-4.11,21.13c-3.26,16.16,5.39,26.37,21.69,26.37,4.32,0,8.88-.57,12.43-1.61.72-.21,1.27-.8,1.41-1.54l3.11-15.68c.28-1.41-.98-2.64-2.39-2.34-1.8.38-3.63.61-5.07.61-4.82,0-7.51-2.69-6.52-8.37l3.69-18.57h21.74l8.73,44.66-19.48,29.22c-.89,1.33.07,3.11,1.66,3.11h21.49c.71,0,1.37-.38,1.73-.99l53.81-92.13c.78-1.33-.18-3.01-1.73-3.01Z"/>
        <path class="cls-1" d="M24.27,100.18l8.76-44.89h19.54l-9.04,46.69c-.25,1.31.82,2.48,2.15,2.36,1.32-.12,2.65-.18,4-.18,5.46,0,10.41,1.01,14.75,2.89,1.18.51,2.54-.17,2.78-1.44l9.78-50.33,3.27-16.76c.24-1.23-.71-2.38-1.96-2.38h-16.16s0,0,0,0h-25.29l.71-3.97c1.56-7.94,5.96-11.34,13.47-11.34h.04c.96,0,1.78-.68,1.96-1.63l3.21-16.84c.23-1.23-.71-2.37-1.96-2.37h-.98C29.62,0,17.29,10.35,13.32,31.19l-.99,4.96h-6.29c-.96,0-1.78.68-1.96,1.62l-2.92,15.14c-.24,1.23.71,2.38,1.96,2.38h5.52L.04,99.42c-.24,1.23.7,2.38,1.96,2.38h20.31c.96,0,1.78-.68,1.96-1.62Z"/>
        <path class="cls-1" d="M239.38,107.59c-7.94,0-14.46,3.12-19.42,8.79l9.87-48.11c.31-1.5-1.12-2.78-2.58-2.3l-21.57,6.99c-.69.22-1.2.8-1.34,1.51l-19.63,97.93c-.25,1.24.7,2.39,1.96,2.39h20.29c.96,0,1.79-.68,1.97-1.63l6.64-35.09c1.42-6.95,6.24-10.21,11.34-10.21,5.53,0,8.51,3.69,7.37,9.64l-6.77,34.91c-.24,1.23.71,2.38,1.96,2.38h20.17c.96,0,1.78-.68,1.96-1.62l7.34-37.66c3.54-17.87-5.25-27.93-19.57-27.93Z"/>
      </g>
      <path class="cls-2" d="M59.5,32.19l11.43-5.82c.5-.25,1.08-.29,1.61-.09l6.21,2.33c1.15.43,2.41-.27,2.66-1.47l2.63-12.66c.26-1.24-.69-2.41-1.96-2.41h-20.32c-.96,0-1.78.68-1.96,1.62l-3.17,16.33c-.32,1.64,1.39,2.92,2.87,2.16Z"/>
    </g>
  </g>
</svg>